<svg xmlns="http://www.w3.org/2000/svg" xmlns:xlink="http://www.w3.org/1999/xlink"><symbol id="icon-facebook" viewBox="0 0 10 19">
<g>
	<path d="M7.1,19H2v-8.8H0V5.8h1.9c-0.1-2,0.2-3.4,1.1-4.4C3.8,0.5,5,0.1,6.5,0L10,0v4.2H7.2C7.1,4.4,7,5,7,5.8H10v4.4H7.1V19z
		 M3.1,18h2.8V9.1h2.9V6.8H5.9l0-0.5c0-1.4,0-2.6,0.7-3.1l0.1-0.1h2.1V1H6.5c-1.2,0.1-2,0.4-2.6,1c-0.8,0.8-1,2.3-0.8,4.2l0.1,0.6
		H1.1v2.3h2V18z"/>
</g>
</symbol><symbol id="icon-female" viewBox="0 0 358.5 440">
<g>
	<path d="M358,400.8c-0.6-3.5-1.2-6.9-1.8-10.3c-7.2-39.4-19-102-64.1-135.9c3.3-22.1,5-56.3,5-107.3C297.1,65.9,244.3,0,179.3,0
		c-44.4,0-72.6,31.4-72.6,31.4c-27.5,27-45.3,68.8-45.3,116c0,50.8,1.8,85.1,5,107.1C21.1,288.1,9.5,351.2,2.3,390.6
		c-0.6,3.4-1.2,6.9-1.8,10.3c-3.1,18.2,9.2,35.5,27.4,38.6c1.9,0.3,3.8,0.5,5.6,0.5l117,0l0,0l174.6-0.1c1.9,0,3.7-0.2,5.6-0.5
		C348.9,436.3,361.1,419,358,400.8z M179.3,324.4l-62.2-31.7l32.2-50.8c8.7,4.5,20.3,7,29.9,7c9.7,0,21-2.6,29.8-7.1l32.2,50.9
		L179.3,324.4z M179.3,226.9c-59.2,0-84.6-80-79.5-105c65-56.6,122.6-52.7,122.6-52.7s10.3,32.1,36.9,70.7
		C254.5,178.1,215.9,226.9,179.3,226.9z"/>
</g>
</symbol><symbol id="icon-html-academy" viewBox="0 0 26.9 34.1">
<path d="M13.6,0l-0.1,0L0,1.4v24.7l13.5,8l13.4-8l0,0V1.4L13.6,0z M25,12.1L13.5,5.3l0-0.1l-0.1,0l-0.1-0.1v0.1L1.9,12.1v-9
	l11.5-1.2L25,3.1L25,12.1L25,12.1z M13.4,6.8l11.5,6.7l-4.5,2.6l-7.1-4.2l0,1.4l5.9,3.5l-0.9,0.5l-5-3l0,1.4l3.8,2.3l-0.8,0.5
	l-3-1.8l0,1.4l1.9,1.1l-1.8,1.1L2,13.6L13.4,6.8z M1.9,15.1l11.4,6.8l0,1l-7.9-4.7l0,1.4l8,4.8l0,1.1l-8-4.7l0,1.4l8,4.8l0,0
	l8.1-4.9l0-5.2l3.4-2v10l-11.5,6.9L1.9,25V15.1z"/>
</symbol><symbol id="icon-instagram" viewBox="0 0 16 16">
<path d="M11.8,1C13.6,1,15,2.4,15,4.2v7.7c0,1.7-1.4,3.1-3.1,3.1H4.2C2.4,15,1,13.6,1,11.8V4.2C1,2.4,2.4,1,4.2,1
	L11.8,1 M11.8,0H4.2C1.9,0,0,1.9,0,4.2v7.7C0,14.1,1.9,16,4.2,16h7.7c2.3,0,4.2-1.9,4.2-4.2V4.2C16,1.9,14.1,0,11.8,0L11.8,0z"/>
<path d="M8,4.9c1.7,0,3.1,1.4,3.1,3.1c0,1.7-1.4,3.1-3.1,3.1c-1.7,0-3.1-1.4-3.1-3.1C4.9,6.3,6.3,4.9,8,4.9 M8,3.9
	C5.7,3.9,3.9,5.7,3.9,8s1.8,4.1,4.1,4.1s4.1-1.8,4.1-4.1S10.3,3.9,8,3.9L8,3.9z"/>
<circle cx="12.3" cy="3.7" r="0.9"/>
</symbol><symbol id="icon-logo-footer" viewBox="0 0 127.8 23.4">
<g>
	<path fill="#111111" d="M1.6,21.5c-1-1.3-1.6-3.2-1.6-5.6V7.6c0-2.5,0.5-4.4,1.5-5.7C2.6,0.6,4.3,0,6.8,0c2.4,0,4.1,0.6,5.1,1.7
		s1.5,2.8,1.5,4.9v2H8.5V6.3c0-0.9-0.1-1.6-0.3-2S7.6,3.5,6.8,3.5c-0.7,0-1.2,0.2-1.4,0.7S5.1,5.5,5.1,6.4v10.7
		c0,0.9,0.1,1.6,0.4,2.1c0.2,0.5,0.7,0.7,1.4,0.7s1.1-0.2,1.3-0.7s0.3-1.2,0.3-2.1v-2.4h4.9v2c0,2.1-0.5,3.8-1.5,5s-2.7,1.8-5.1,1.8
		C4.4,23.4,2.6,22.8,1.6,21.5z"/>
	<path fill="#111111" d="M19.3,0.3H25l4.2,22.8h-4.6l-0.8-4.8h-3.3l-0.8,4.8H15L19.3,0.3z M23.4,15.3l-1.2-8.9L21,15.3H23.4z"/>
	<path fill="#111111" d="M32.7,4.1h-3.4V0.3h11.9V4h-3.4v19.1h-5.1V4.1z"/>
	<path fill="#111111" d="M50.3,0.3h8.8v2.4h-5.7v7.5H58v2.3h-4.6v8.4h5.7v2.3h-8.9V0.3H50.3z"/>
	<path fill="#111111" d="M61.7,0.3h2.2l6.5,15.1V0.3H73v22.8h-2L64.4,7.5v15.6h-2.7V0.3z"/>
	<path fill="#111111" d="M76,0.3h8.8v2.4h-5.7v7.5h4.6v2.3h-4.6v8.4h5.7v2.3H76V0.3z"/>
	<path fill="#111111" d="M87.4,0.3H92c2.3,0,4,0.5,5.1,1.4s1.6,2.5,1.6,4.6c0,2.9-0.9,4.7-2.8,5.3L99.1,23H96l-3-10.7h-2.5V23h-3.2
		L87.4,0.3L87.4,0.3z M91.8,10.1c1.4,0,2.3-0.3,2.9-0.8s0.9-1.5,0.9-3c0-0.9-0.1-1.7-0.3-2.2c-0.2-0.5-0.6-0.9-1.1-1.2
		S92.9,2.5,92,2.5h-1.4V10h1.2V10.1z"/>
	<path fill="#111111" d="M102.7,21.4c-0.9-1.3-1.4-3.2-1.4-5.8V8c0-1.8,0.2-3.2,0.5-4.3c0.4-1.1,1-2,1.9-2.6s2.1-0.9,3.7-0.9
		c2.1,0,3.6,0.5,4.5,1.6s1.4,2.7,1.4,5v0.8h-3V6.9c0-1.1-0.1-1.9-0.2-2.5s-0.4-1-0.8-1.3s-1-0.5-1.9-0.5s-1.5,0.2-2,0.6
		s-0.7,0.9-0.8,1.6s-0.2,1.6-0.2,2.7V16c0,1.7,0.2,3,0.6,3.8s1.2,1.1,2.4,1.1c1.2,0,2-0.4,2.4-1.2c0.4-0.8,0.7-2.1,0.7-4v-1.6h-2.9
		v-2.3h5.8v11.3h-2l-0.3-2.6c-0.7,1.9-2.1,2.9-4.1,2.9C105.1,23.4,103.6,22.7,102.7,21.4z"/>
	<path fill="#111111" d="M119.8,15.1l-4.9-14.7h3l3.5,11l3.4-11h3l-4.9,14.7v8h-3L119.8,15.1L119.8,15.1z"/>
</g>
</symbol><symbol id="icon-logo-mobile-header" viewBox="0 0 100.5 18.1">
<g>
	<path fill="#111111" d="M1.2,16.6c-0.8-1-1.2-2.5-1.2-4.4V5.9c0-1.9,0.4-3.4,1.2-4.4C2,0.5,3.4,0,5.4,0c1.9,0,3.2,0.4,4,1.3
		c0.8,0.9,1.2,2.1,1.2,3.8v1.5H6.6V4.8c0-0.7-0.1-1.2-0.2-1.6C6.3,2.9,5.9,2.7,5.4,2.7S4.4,2.9,4.3,3.3C4.1,3.7,4,4.2,4,4.9v8.3
		c0,0.7,0.1,1.2,0.3,1.6c0.2,0.4,0.5,0.6,1.1,0.6c0.5,0,0.9-0.2,1-0.6c0.2-0.4,0.2-0.9,0.2-1.6v-1.8h3.9v1.5c0,1.6-0.4,2.9-1.2,3.9
		c-0.8,0.9-2.1,1.4-4,1.4C3.4,18.1,2,17.6,1.2,16.6z"/>
	<path fill="#111111" d="M15.2,0.2h4.5L23,17.8h-3.6l-0.6-3.7h-2.6l-0.6,3.7h-3.7L15.2,0.2z M18.4,11.8l-0.9-6.9l-0.9,6.9H18.4z"/>
	<path fill="#111111" d="M25.8,3.1h-2.7V0.2h9.3v2.9h-2.7v14.7h-4V3.1z"/>
	<path fill="#111111" d="M39.5,0.2h6.9v1.8H42v5.8h3.6v1.7H42v6.4h4.5v1.8h-7V0.2z"/>
	<path fill="#111111" d="M48.5,0.2h1.7l5.1,11.7V0.2h2.1v17.6h-1.6l-5.1-12v12h-2.1V0.2z"/>
	<path fill="#111111" d="M59.8,0.2h6.9v1.8h-4.4v5.8h3.6v1.7h-3.6v6.4h4.5v1.8h-7V0.2z"/>
	<path fill="#111111" d="M68.8,0.2h3.6c1.8,0,3.1,0.4,4,1.1s1.3,1.9,1.3,3.6c0,2.3-0.7,3.6-2.2,4.1l2.5,8.8h-2.4l-2.3-8.3h-1.9v8.3
		h-2.5V0.2z M72.2,7.8c1.1,0,1.8-0.2,2.3-0.6C75,6.8,75.2,6,75.2,4.9c0-0.7-0.1-1.3-0.2-1.7s-0.4-0.7-0.9-0.9
		c-0.4-0.2-1-0.3-1.7-0.3h-1.1v5.8H72.2z"/>
	<path fill="#111111" d="M80.8,16.5c-0.7-1-1.1-2.5-1.1-4.5V6.2c0-1.4,0.1-2.5,0.4-3.4c0.3-0.9,0.8-1.5,1.5-2
		c0.7-0.5,1.7-0.7,2.9-0.7c1.6,0,2.8,0.4,3.6,1.2c0.7,0.8,1.1,2.1,1.1,3.9v0.7h-2.3V5.3c0-0.8-0.1-1.5-0.2-1.9
		c-0.1-0.5-0.3-0.8-0.7-1C85.7,2.1,85.2,2,84.6,2c-0.7,0-1.2,0.2-1.5,0.5c-0.3,0.3-0.6,0.7-0.7,1.2c-0.1,0.5-0.1,1.2-0.1,2.1v6.5
		c0,1.3,0.2,2.3,0.5,2.9c0.3,0.6,1,0.9,1.9,0.9c0.9,0,1.6-0.3,1.9-1c0.3-0.6,0.5-1.7,0.5-3.1v-1.2h-2.3V9.1h4.5v8.7h-1.6l-0.2-2
		c-0.6,1.5-1.6,2.2-3.2,2.2C82.7,18,81.5,17.5,80.8,16.5z"/>
	<path fill="#111111" d="M94.3,11.6L90.4,0.2h2.3l2.7,8.5l2.7-8.5h2.3l-3.8,11.4v6.2h-2.4V11.6z"/>
</g>
</symbol><symbol id="icon-lose-weight" viewBox="0 0 367.6 512">
<g>
	<path d="M288,0c-0.7,0-1.3,0-2,0c-3.6,1.9-5.7,5-7.5,8.4c-3.1,5.8-5.3,11.9-6.9,18.2c-1.1,4.3-3.4,6.3-7.8,7.1
		c-12.3,2.1-21.2,9.1-27.5,19.8c-3.9,6.6-6.9,13.7-9.7,20.8c-7.5,19.4-13.2,39.5-20.2,59.1c-3.3,9.4-3.5,9.2-13.5,9.3
		c-11.9,0.1-11.1-1.9-11.2,11.3c-0.1,4.2,1.3,6.3,5.7,6.1c1.4-0.1,3.4-0.7,3.9,1.1c0.4,1.5-1.3,2.6-2.3,3.6
		c-6.3,6.6-14.1,10.5-22.8,12.8c-10,2.7-20.1,4.8-29.9,8.1c-24.9,8.4-48,20.1-65.9,40c-11,12.1-18.5,26.5-24.9,41.4
		c-19.5,45.4-28.6,93.5-35.9,142c-3.4,22.7-5.8,45.6-7.7,68.5C1,489-0.2,500.5,0,512c58.3,0,116.7,0,175,0c0.6-2.4-0.4-4.6-1.2-6.8
		c-3.6-9.3-10.9-14.1-20.1-16.2c-3.6-0.8-4.1-1.9-1.8-4.8c3.8-4.9,6.4-10.5,8.4-16.4c8.6-25.4,11.9-51.8,16-78.1
		c3.2-20.1,7.9-39.5,18.3-57.2c7.7-13.1,17.3-24.4,29.4-33.6c4.4-3.3,4.5-3.3,5.2,2.3c0.5,3.8,0.6,7.6,0.9,11.4
		c1.5,25,1.4,49.9-0.9,74.8c-1.8,19.4-2.5,38.8-0.8,58.3c1.9,22.4,6.1,44.5,11.7,66.2c23.3,0,46.7,0,70,0
		c-1.7-11.6-11.1-21.2-22.3-23.4c-6.7-1.3-13.3-0.4-19.8,1.1c-3.1,0.7-4.5,0.2-4.7-3.4c-2.1-28.1-0.7-56,5-83.5
		c6.6-31.8,12.8-63.7,16.1-96c1.4-13.4,5.4-25.5,11.9-37.1c6.3-11.2,11.7-22.8,17.9-34.1c4.9-8.9,5.8-17.9,2.2-27.4
		c-1.4-3.7-2.8-7.5-4.5-11.1c-5-10.3-10.4-20.5-15.3-30.9c-2.6-5.4-2-5.9,3.7-6.1c8.6-0.2,8.6-0.2,8.7-8.7c0-1.2,0-2.3,0-3.5
		c0.1-3.6-1.3-5.6-5.3-5.3c-2.7,0.2-5.3,0-8,0.1c-3.6,0.1-4.7-1.5-3.8-5c3-12,14.6-21.9,27-23.4c11.8-1.4,23.3,0.2,34.7,2.3
		c3.4,0.6,5.3-0.1,6.6-3.4c2.1-5.3,4.4-10.4,6.8-15.6c1-2.2,1-4-0.5-6c-16.7-21.7-34.9-41.7-59.7-54.4c-2.6-1.3-4.1-3-4.7-5.9
		c-1.6-7.5-3.4-14.9-6.7-21.9C293.7,5.5,291.7,2.1,288,0z"/>
</g>
</symbol><symbol id="icon-male" viewBox="0 0 35.9 45.7">
<g>
	<g>
		<path d="M27.2,19.7c1.2-0.3,2.3-1.3,2.5-3.5c0.2-1.8-0.3-2.8-1-3.2c1.9-7.8-3.4-9.3-3.4-9.3s-3.9-6.7-11.6-2
			c-1,0.6-2.5,1.7-3.4,2.9c-1.5,1.5-2.4,4.1-2.6,8.1c-0.9,0.4-1.7,1.3-1.5,3.5c0.2,2.3,1.4,3.3,2.7,3.5c1.7,4.2,5.1,7.6,9.1,7.6
			C22.1,27.4,25.5,23.9,27.2,19.7z M18.1,25.4c-4.6,0-8.4-6.3-8.4-11.5c0-0.7,0-1.4,0.1-2c6.8,0.3,10.8-2.4,13-4.8
			c2.1,2.1,3.2,4.7,3.7,6.6c0,0.1,0,0.1,0,0.2C26.5,19.1,22.7,25.4,18.1,25.4z"/>
		<path d="M15.4,33.3l0.5-2.2c0.1-0.3,0.2-0.5,0.4-0.6c-0.1,0-0.1-0.1-0.2-0.1l-4.8-4L8.4,27C3.5,28.2,0,32.4,0,37.2v6.3
			c0,1.2,1.1,2.2,2.4,2.2h12.4l1.9-10.8C15.8,34.9,15.2,34.1,15.4,33.3z"/>
		<path d="M27.6,27l-2.9-0.7l-4.8,4c-0.1,0-0.1,0.1-0.2,0.1c0.2,0.2,0.3,0.4,0.4,0.6l0.5,2.2c0.2,0.8-0.4,1.6-1.3,1.6l1.9,10.8h12.4
			c1.3,0,2.3-1,2.3-2.2v-6.3C35.9,32.4,32.5,28.2,27.6,27z"/>
	</g>
</g>
</symbol><symbol id="icon-vk" viewBox="0 0 22 12">
<g>
	<path d="M17.6,12c-0.3,0-0.9-0.1-1.5-0.5c-0.5-0.3-0.9-0.7-1.3-1.2c-0.3-0.3-0.9-0.9-1.1-0.9c-0.2,0.1-0.4,0.7-0.3,1.2
		c0,0.1,0,0.6-0.3,0.9c-0.3,0.3-0.8,0.4-0.9,0.4l-1.4,0c-0.7,0-3.2-0.2-5.4-2.3C2.5,7.1,0.2,2.2,0.1,2C0,1.6-0.1,1.2,0.2,0.9
		c0.3-0.3,0.8-0.4,1-0.4l3,0l0.1,0c0.1,0,0.4,0.1,0.7,0.3c0.3,0.2,0.4,0.5,0.5,0.6c0,0,0.5,1.1,1.1,2c1,1.5,1.4,1.9,1.5,2
		C8.2,5,8.3,4,8.2,3.1c0-0.4-0.1-0.8-0.2-1C7.9,2,7.7,1.9,7.5,1.9L6.9,1.4C6.9,0.9,7.4,0.5,7.8,0.3C8.3,0.1,9.1,0,10.1,0l0.5,0
		c0.9,0,1.2,0.1,1.6,0.1c1.2,0.3,1.2,1.3,1.1,2.5c0,0.4,0,0.8,0,1.2c0,0.1,0,0.2,0,0.4c0,0.3,0,0.8,0.1,1c0.2-0.1,0.6-0.5,1.5-1.9
		c0.6-0.9,1-1.9,1.1-2.1l0,0c0.1-0.3,0.4-0.7,1.2-0.7l3.1,0c0,0,0.1,0,0.3,0c0.7,0,1.2,0.2,1.3,0.7c0.2,0.5,0.1,1.3-1.7,3.5
		c-0.3,0.3-0.5,0.6-0.7,0.9C19,6,18.6,6.6,18.6,6.7c0,0.1,0.5,0.5,0.9,0.9c1.1,0.9,1.9,1.7,2.2,2.3c0.4,0.6,0.3,1,0.2,1.3
		c-0.3,0.7-1.2,0.7-1.4,0.8l-2.8,0C17.7,12,17.6,12,17.6,12z M13.7,8.3c0.7,0,1.2,0.6,1.8,1.2c0.4,0.4,0.7,0.8,1.1,1
		c0.5,0.3,1,0.3,1,0.3l0.1,0l2.8,0c0.1,0,0.3-0.1,0.4-0.1c0,0,0-0.1-0.1-0.1c-0.3-0.5-1-1.3-2-2.1c-0.9-0.7-1.3-1.1-1.4-1.7
		c0-0.6,0.4-1.1,1.2-2.1c0.2-0.2,0.4-0.5,0.7-0.8c1.1-1.4,1.4-2,1.5-2.3c-0.1,0-0.5,0-0.5,0l-3.2,0c-0.1,0-0.2,0-0.2,0
		C16.9,2,16.4,3.1,15.8,4c-1.4,2.1-2,2.4-2.5,2.4c-0.1,0-0.3,0-0.4-0.1c-0.7-0.4-0.7-1.4-0.7-2.1c0-0.1,0-0.2,0-0.3
		c0-0.5,0-0.9,0-1.3c0.1-1.3,0-1.3-0.3-1.4c-0.3-0.1-0.5-0.1-1.4-0.1l-0.5,0c-0.5,0-1,0-1.4,0.1c0.1,0.1,0.1,0.1,0.2,0.2
		c0.4,0.5,0.4,1.5,0.4,1.7c0.1,1.3,0,2.9-0.7,3.3C8.4,6.4,8.3,6.5,8.1,6.5C7.5,6.5,6.8,5.8,5.6,4C5,2.9,4.5,1.8,4.5,1.8
		c0,0,0-0.1-0.1-0.1c-0.1,0-0.2-0.1-0.2-0.1l-2.9,0c0,0,0,0-0.1,0c0.4,0.9,2.5,5,4.8,7.2c2,1.9,4.3,2,4.7,2l1.4,0c0,0,0.2,0,0.2-0.1
		c0,0,0,0,0-0.1c0-0.2,0-2,1.2-2.3C13.5,8.3,13.6,8.3,13.7,8.3z"/>
</g>
</symbol></svg>